<svg width="96" height="95" viewBox="0 0 96 95" fill="none" xmlns="http://www.w3.org/2000/svg">
<g opacity="0.6">
<circle cx="68.9443" cy="25.4006" r="3.62865" fill="white"/>
<circle cx="68.9443" cy="3.62865" r="3.62865" fill="white"/>
<circle cx="68.9443" cy="47.1724" r="3.62865" fill="white"/>
<circle cx="68.9443" cy="68.9443" r="3.62865" fill="white"/>
<circle cx="68.9443" cy="90.7162" r="3.62865" fill="white"/>
<circle cx="90.7162" cy="25.4006" r="3.62865" fill="white"/>
<circle cx="90.7162" cy="3.62865" r="3.62865" fill="white"/>
<circle cx="90.7162" cy="47.1724" r="3.62865" fill="white"/>
<circle cx="90.7162" cy="68.9443" r="3.62865" fill="white"/>
<circle cx="90.7162" cy="90.7162" r="3.62865" fill="white"/>
<circle cx="25.4005" cy="25.4006" r="3.62865" fill="white"/>
<circle cx="25.4005" cy="3.62865" r="3.62865" fill="white"/>
<circle cx="25.4005" cy="47.1724" r="3.62865" fill="white"/>
<circle cx="25.4005" cy="68.9443" r="3.62865" fill="white"/>
<circle cx="25.4005" cy="90.7162" r="3.62865" fill="white"/>
<circle cx="47.1725" cy="25.4006" r="3.62865" fill="white"/>
<circle cx="47.1725" cy="3.62865" r="3.62865" fill="white"/>
<circle cx="47.1725" cy="47.1724" r="3.62865" fill="white"/>
<circle cx="47.1725" cy="68.9443" r="3.62865" fill="white"/>
<circle cx="47.1725" cy="90.7162" r="3.62865" fill="white"/>
<circle cx="3.62865" cy="25.4006" r="3.62865" fill="white"/>
<circle cx="3.62865" cy="3.62865" r="3.62865" fill="white"/>
<circle cx="3.62865" cy="47.1724" r="3.62865" fill="white"/>
<circle cx="3.62865" cy="68.9443" r="3.62865" fill="white"/>
<circle cx="3.62865" cy="90.7162" r="3.62865" fill="white"/>
</g>
</svg>
